<svg xmlns="http://www.w3.org/2000/svg" viewBox="0 0 720 620" role="img" aria-labelledby="title desc">
<title id="title">Continuous learning system</title>
<desc id="desc">A systems diagram showing reading becoming understanding, opportunity, product strategy, experiments, learning, and better ideas.</desc>
<g fill="none" stroke="#6f675b" stroke-opacity="0.32" stroke-width="1.4" stroke-linecap="round" stroke-linejoin="round">
<path d="M 360 94 L 360 126"/>
<path d="M 360 174 L 360 206"/>
<path d="M 360 254 L 240 306"/>
<path d="M 360 254 L 480 306"/>
<path d="M 240 354 L 360 406"/>
<path d="M 480 354 L 360 406"/>
<path d="M 360 454 L 360 486"/>
<path d="M 360 534 L 360 536" stroke-dasharray="7 9"/>
<path d="M 438 560 L 610 560 L 610 70 L 436 70" stroke-dasharray="7 9" stroke-opacity="0.18"/>
</g>
<rect x="312.0" y="49" width="96" height="42" rx="12" fill="#fffaf1" fill-opacity="0.18" stroke="#6f675b" stroke-opacity="0.30"/>
<circle cx="360" cy="70" r="4" fill="#6f675b" fill-opacity="0.42"/>
<text x="360" y="75" text-anchor="middle" font-family="Inter, Helvetica Neue, Arial, sans-serif" font-size="15" fill="#2f2922" fill-opacity="0.82">Reading</text>
<rect x="291.0" y="129" width="138" height="42" rx="12" fill="#fffaf1" fill-opacity="0.18" stroke="#6f675b" stroke-opacity="0.30"/>
<circle cx="360" cy="150" r="4" fill="#6f675b" fill-opacity="0.42"/>
<text x="360" y="155" text-anchor="middle" font-family="Inter, Helvetica Neue, Arial, sans-serif" font-size="15" fill="#2f2922" fill-opacity="0.82">Understanding</text>
<rect x="299.0" y="209" width="122" height="42" rx="12" fill="#fffaf1" fill-opacity="0.18" stroke="#6f675b" stroke-opacity="0.30"/>
<circle cx="360" cy="230" r="4" fill="#6f675b" fill-opacity="0.42"/>
<text x="360" y="235" text-anchor="middle" font-family="Inter, Helvetica Neue, Arial, sans-serif" font-size="15" fill="#2f2922" fill-opacity="0.82">Opportunity</text>
<rect x="192.0" y="309" width="96" height="42" rx="12" fill="#fffaf1" fill-opacity="0.18" stroke="#6f675b" stroke-opacity="0.30"/>
<circle cx="240" cy="330" r="4" fill="#6f675b" fill-opacity="0.42"/>
<text x="240" y="335" text-anchor="middle" font-family="Inter, Helvetica Neue, Arial, sans-serif" font-size="15" fill="#2f2922" fill-opacity="0.82">Product</text>
<rect x="431.0" y="309" width="98" height="42" rx="12" fill="#fffaf1" fill-opacity="0.18" stroke="#6f675b" stroke-opacity="0.30"/>
<circle cx="480" cy="330" r="4" fill="#6f675b" fill-opacity="0.42"/>
<text x="480" y="335" text-anchor="middle" font-family="Inter, Helvetica Neue, Arial, sans-serif" font-size="15" fill="#2f2922" fill-opacity="0.82">Strategy</text>
<rect x="303.0" y="409" width="114" height="42" rx="12" fill="#fffaf1" fill-opacity="0.18" stroke="#6f675b" stroke-opacity="0.30"/>
<circle cx="360" cy="430" r="4" fill="#6f675b" fill-opacity="0.42"/>
<text x="360" y="435" text-anchor="middle" font-family="Inter, Helvetica Neue, Arial, sans-serif" font-size="15" fill="#2f2922" fill-opacity="0.82">Experiment</text>
<rect x="311.0" y="489" width="98" height="42" rx="12" fill="#fffaf1" fill-opacity="0.18" stroke="#6f675b" stroke-opacity="0.30"/>
<circle cx="360" cy="510" r="4" fill="#6f675b" fill-opacity="0.42"/>
<text x="360" y="515" text-anchor="middle" font-family="Inter, Helvetica Neue, Arial, sans-serif" font-size="15" fill="#2f2922" fill-opacity="0.82">Learning</text>
<rect x="295.0" y="539" width="130" height="42" rx="12" fill="#fffaf1" fill-opacity="0.18" stroke="#6f675b" stroke-opacity="0.30"/>
<circle cx="360" cy="560" r="4" fill="#6f675b" fill-opacity="0.42"/>
<text x="360" y="565" text-anchor="middle" font-family="Inter, Helvetica Neue, Arial, sans-serif" font-size="15" fill="#2f2922" fill-opacity="0.82">Better Ideas</text>
</svg>